<svg xmlns="http://www.w3.org/2000/svg" xmlns:xlink="http://www.w3.org/1999/xlink" xmlns:lucid="lucid" width="585.56" height="451"><g transform="translate(-440 -100)" lucid:page-tab-id="0_0"><path d="M660 320h140v60H660z" stroke="#000" stroke-width="2" fill="#fff"/><use xlink:href="#a" transform="matrix(1,0,0,1,665,325) translate(25.574999999999996 28.6)"/><path d="M556 320c13.25 0 24 13.43 24 30s-10.75 30-24 30h-72c-13.25 0-24-13.43-24-30s10.75-30 24-30z" stroke="#000" stroke-width="2" fill="#fff"/><use xlink:href="#b" transform="matrix(1,0,0,1,465,325) translate(26.525 28.6)"/><path d="M581 350h59.76" stroke="#000" stroke-width="2" fill="none"/><path d="M581 351h-1.08l.08-1-.04-1H581zM655.76 350l-14.26 4.64v-9.28z"/><path d="M659 350l-18.5 6v-12zm-16.5 3.26l10.03-3.26-10.03-3.26z"/><path d="M976 320c13.25 0 24 13.43 24 30s-10.75 30-24 30h-72c-13.25 0-24-13.43-24-30s10.75-30 24-30z" stroke="#000" stroke-width="2" fill="#fff"/><use xlink:href="#c" transform="matrix(1,0,0,1,885,325) translate(21.525 28.6)"/><path d="M801 350h59.76" stroke="#000" stroke-width="2" fill="none"/><path d="M801 351h-1v-2h1zM875.76 350l-14.26 4.64v-9.28z"/><path d="M879 350l-18.5 6v-12zm-16.5 3.26l10.03-3.26-10.03-3.26z"/><path d="M620 160v380" fill="none"/><path d="M620 160v3.96m0 7.9v7.93m0 7.9v7.93m0 7.9v7.93m0 7.92v7.9m0 7.93v7.93m0 7.9v7.93m0 7.92v7.9m0 7.93v7.93m0 7.9v7.93m0 7.92v7.9m0 7.93v7.93m0 7.9v7.93m0 7.92v7.9m0 7.93v7.93m0 7.9v7.93m0 7.92v7.9m0 7.93v7.93m0 7.9v7.93m0 7.92v7.9m0 7.93v7.93m0 7.9v7.93m0 7.92v7.9m0 7.93v7.93m0 7.9V540" stroke="#000" stroke-width="2" fill="none"/><path d="M840 160v380" fill="none"/><path d="M840 160v3.96m0 7.9v7.93m0 7.9v7.93m0 7.9v7.93m0 7.92v7.9m0 7.93v7.93m0 7.9v7.93m0 7.92v7.9m0 7.93v7.93m0 7.9v7.93m0 7.92v7.9m0 7.93v7.93m0 7.9v7.93m0 7.92v7.9m0 7.93v7.93m0 7.9v7.93m0 7.92v7.9m0 7.93v7.93m0 7.9v7.93m0 7.92v7.9m0 7.93v7.93m0 7.9v7.93m0 7.92v7.9m0 7.93v7.93m0 7.9V540" stroke="#000" stroke-width="2" fill="none"/><path d="M460 120h100v60H460z" stroke="#000" stroke-opacity="0" stroke-width="2" fill="#fff" fill-opacity="0"/><use xlink:href="#d" transform="matrix(1,0,0,1,465,125) translate(2.654320987654316 31.22222222222222)"/><path d="M660 120h140v60H660z" stroke="#000" stroke-opacity="0" stroke-width="2" fill="#fff" fill-opacity="0"/><use xlink:href="#e" transform="matrix(1,0,0,1,665,125) translate(8.870370370370367 31.22222222222222)"/><path d="M900 120h100v60H900z" stroke="#000" stroke-opacity="0" stroke-width="2" fill="#fff" fill-opacity="0"/><use xlink:href="#f" transform="matrix(1,0,0,1,905,125) translate(-9.444444444444443 31.22222222222222)"/><defs><path d="M212-179c-10-28-35-45-73-45-59 0-87 40-87 99 0 60 29 101 89 101 43 0 62-24 78-52l27 14C228-24 195 4 139 4 59 4 22-46 18-125c-6-104 99-153 187-111 19 9 31 26 39 46" id="g"/><path d="M100-194c62-1 85 37 85 99 1 63-27 99-86 99S16-35 15-95c0-66 28-99 85-99zM99-20c44 1 53-31 53-75 0-43-8-75-51-75s-53 32-53 75 10 74 51 75" id="h"/><path d="M210-169c-67 3-38 105-44 169h-31v-121c0-29-5-50-35-48C34-165 62-65 56 0H25l-1-190h30c1 10-1 24 2 32 10-44 99-50 107 0 11-21 27-35 58-36 85-2 47 119 55 194h-31v-121c0-29-5-49-35-48" id="i"/><path d="M115-194c55 1 70 41 70 98S169 2 115 4C84 4 66-9 55-30l1 105H24l-1-265h31l2 30c10-21 28-34 59-34zm-8 174c40 0 45-34 45-75s-6-73-45-74c-42 0-51 32-51 76 0 43 10 73 51 73" id="j"/><path d="M84 4C-5 8 30-112 23-190h32v120c0 31 7 50 39 49 72-2 45-101 50-169h31l1 190h-30c-1-10 1-25-2-33-11 22-28 36-60 37" id="k"/><path d="M59-47c-2 24 18 29 38 22v24C64 9 27 4 27-40v-127H5v-23h24l9-43h21v43h35v23H59v120" id="l"/><path d="M100-194c63 0 86 42 84 106H49c0 40 14 67 53 68 26 1 43-12 49-29l28 8c-11 28-37 45-77 45C44 4 14-33 15-96c1-61 26-98 85-98zm52 81c6-60-76-77-97-28-3 7-6 17-6 28h103" id="m"/><path d="M114-163C36-179 61-72 57 0H25l-1-190h30c1 12-1 29 2 39 6-27 23-49 58-41v29" id="n"/><g id="a"><use transform="matrix(0.05,0,0,0.05,0,0)" xlink:href="#g"/><use transform="matrix(0.05,0,0,0.05,12.950000000000001,0)" xlink:href="#h"/><use transform="matrix(0.05,0,0,0.05,22.950000000000003,0)" xlink:href="#i"/><use transform="matrix(0.05,0,0,0.05,37.900000000000006,0)" xlink:href="#j"/><use transform="matrix(0.05,0,0,0.05,47.900000000000006,0)" xlink:href="#k"/><use transform="matrix(0.05,0,0,0.05,57.900000000000006,0)" xlink:href="#l"/><use transform="matrix(0.05,0,0,0.05,62.900000000000006,0)" xlink:href="#m"/><use transform="matrix(0.05,0,0,0.05,72.9,0)" xlink:href="#n"/></g><path d="M185-189c-5-48-123-54-124 2 14 75 158 14 163 119 3 78-121 87-175 55-17-10-28-26-33-46l33-7c5 56 141 63 141-1 0-78-155-14-162-118-5-82 145-84 179-34 5 7 8 16 11 25" id="o"/><path d="M117-194c89-4 53 116 60 194h-32v-121c0-31-8-49-39-48C34-167 62-67 57 0H25l-1-190h30c1 10-1 24 2 32 11-22 29-35 61-36" id="p"/><path d="M135-143c-3-34-86-38-87 0 15 53 115 12 119 90S17 21 10-45l28-5c4 36 97 45 98 0-10-56-113-15-118-90-4-57 82-63 122-42 12 7 21 19 24 35" id="q"/><g id="b"><use transform="matrix(0.05,0,0,0.05,0,0)" xlink:href="#o"/><use transform="matrix(0.05,0,0,0.05,12,0)" xlink:href="#m"/><use transform="matrix(0.05,0,0,0.05,22,0)" xlink:href="#p"/><use transform="matrix(0.05,0,0,0.05,32,0)" xlink:href="#q"/><use transform="matrix(0.05,0,0,0.05,41,0)" xlink:href="#h"/><use transform="matrix(0.05,0,0,0.05,51,0)" xlink:href="#n"/></g><path d="M205 0l-28-72H64L36 0H1l101-248h38L239 0h-34zm-38-99l-47-123c-12 45-31 82-46 123h93" id="r"/><path d="M96-169c-40 0-48 33-48 73s9 75 48 75c24 0 41-14 43-38l32 2c-6 37-31 61-74 61-59 0-76-41-82-99-10-93 101-131 147-64 4 7 5 14 7 22l-32 3c-4-21-16-35-41-35" id="s"/><path d="M141-36C126-15 110 5 73 4 37 3 15-17 15-53c-1-64 63-63 125-63 3-35-9-54-41-54-24 1-41 7-42 31l-33-3c5-37 33-52 76-52 45 0 72 20 72 64v82c-1 20 7 32 28 27v20c-31 9-61-2-59-35zM48-53c0 20 12 33 32 33 41-3 63-29 60-74-43 2-92-5-92 41" id="t"/><g id="c"><use transform="matrix(0.05,0,0,0.05,0,0)" xlink:href="#r"/><use transform="matrix(0.05,0,0,0.05,12,0)" xlink:href="#s"/><use transform="matrix(0.05,0,0,0.05,21,0)" xlink:href="#l"/><use transform="matrix(0.05,0,0,0.05,26,0)" xlink:href="#k"/><use transform="matrix(0.05,0,0,0.05,36,0)" xlink:href="#t"/><use transform="matrix(0.05,0,0,0.05,46,0)" xlink:href="#l"/><use transform="matrix(0.05,0,0,0.05,51,0)" xlink:href="#h"/><use transform="matrix(0.05,0,0,0.05,61,0)" xlink:href="#n"/></g><path d="M33 0v-248h34V0H33" id="u"/><g id="d"><use transform="matrix(0.08641975308641976,0,0,0.08641975308641976,0,0)" xlink:href="#u"/><use transform="matrix(0.08641975308641976,0,0,0.08641975308641976,8.641975308641976,0)" xlink:href="#p"/><use transform="matrix(0.08641975308641976,0,0,0.08641975308641976,25.925925925925927,0)" xlink:href="#j"/><use transform="matrix(0.08641975308641976,0,0,0.08641975308641976,43.20987654320989,0)" xlink:href="#k"/><use transform="matrix(0.08641975308641976,0,0,0.08641975308641976,60.49382716049384,0)" xlink:href="#l"/><use transform="matrix(0.08641975308641976,0,0,0.08641975308641976,69.13580246913581,0)" xlink:href="#q"/></g><path d="M30-248c87 1 191-15 191 75 0 78-77 80-158 76V0H30v-248zm33 125c57 0 124 11 124-50 0-59-68-47-124-48v98" id="v"/><g id="e"><use transform="matrix(0.08641975308641976,0,0,0.08641975308641976,0,0)" xlink:href="#v"/><use transform="matrix(0.08641975308641976,0,0,0.08641975308641976,20.740740740740744,0)" xlink:href="#n"/><use transform="matrix(0.08641975308641976,0,0,0.08641975308641976,31.024691358024693,0)" xlink:href="#h"/><use transform="matrix(0.08641975308641976,0,0,0.08641975308641976,48.308641975308646,0)" xlink:href="#s"/><use transform="matrix(0.08641975308641976,0,0,0.08641975308641976,63.8641975308642,0)" xlink:href="#m"/><use transform="matrix(0.08641975308641976,0,0,0.08641975308641976,81.14814814814815,0)" xlink:href="#q"/><use transform="matrix(0.08641975308641976,0,0,0.08641975308641976,96.70370370370371,0)" xlink:href="#q"/></g><path d="M140-251c81 0 123 46 123 126C263-46 219 4 140 4 59 4 17-45 17-125s42-126 123-126zm0 227c63 0 89-41 89-101s-29-99-89-99c-61 0-89 39-89 99S79-25 140-24" id="w"/><g id="f"><use transform="matrix(0.08641975308641976,0,0,0.08641975308641976,0,0)" xlink:href="#w"/><use transform="matrix(0.08641975308641976,0,0,0.08641975308641976,24.19753086419753,0)" xlink:href="#k"/><use transform="matrix(0.08641975308641976,0,0,0.08641975308641976,41.48148148148148,0)" xlink:href="#l"/><use transform="matrix(0.08641975308641976,0,0,0.08641975308641976,50.123456790123456,0)" xlink:href="#j"/><use transform="matrix(0.08641975308641976,0,0,0.08641975308641976,67.4074074074074,0)" xlink:href="#k"/><use transform="matrix(0.08641975308641976,0,0,0.08641975308641976,84.69135802469135,0)" xlink:href="#l"/><use transform="matrix(0.08641975308641976,0,0,0.08641975308641976,93.33333333333333,0)" xlink:href="#q"/></g></defs></g></svg>