<svg xmlns="http://www.w3.org/2000/svg" xmlns:xlink="http://www.w3.org/1999/xlink" xmlns:lucid="lucid" width="685.09" height="460"><g transform="translate(-468.0980728474487 -160)" lucid:page-tab-id="0_0"><path d="M743.33 180h127.04v60H743.33z" stroke="#000" stroke-width="2" fill="#fff"/><use xlink:href="#a" transform="matrix(1,0,0,1,748.3333333333334,185) translate(19.574999999999996 28.6)"/><path d="M667.1 180c12.04 0 21.8 13.43 21.8 30s-9.76 30-21.8 30H601.8c-12.03 0-21.78-13.43-21.78-30s9.75-30 21.78-30z" stroke="#000" stroke-width="2" fill="#fff"/><use xlink:href="#b" transform="matrix(1,0,0,1,585,185) translate(21.025 28.6)"/><path d="M689.9 210h34.2" stroke="#000" stroke-width="2" fill="none"/><path d="M689.9 211h-1.1l.1-1-.05-1h1.04zM739.1 210l-14.27 4.64v-9.28z"/><path d="M742.33 210l-18.5 6v-12zm-16.5 3.26l10.03-3.26-10.03-3.26z"/><path d="M1027.1 180c12.04 0 21.8 13.43 21.8 30s-9.76 30-21.8 30H961.8c-12.03 0-21.78-13.43-21.78-30s9.75-30 21.78-30z" stroke="#000" stroke-width="2" fill="#fff"/><use xlink:href="#c" transform="matrix(1,0,0,1,945,185) translate(16.025 28.6)"/><path d="M871.37 210h49.4" stroke="#000" stroke-width="2" fill="none"/><path d="M871.37 211h-1v-2h1zM935.76 210l-14.26 4.64v-9.28z"/><path d="M939 210l-18.5 6v-12zm-16.5 3.26l10.03-3.26-10.03-3.26z"/><path d="M571.3 460h471.1v140H571.3z" stroke="#000" stroke-opacity="0" stroke-width="2" fill="#fff" fill-opacity="0"/><use xlink:href="#d" transform="matrix(1,0,0,1,576.2962962962963,465) translate(44.24074074074073 59.666666666666664)"/><use xlink:href="#e" transform="matrix(1,0,0,1,576.2962962962963,465) translate(35.56172839506172 111.22222222222223)"/><use xlink:href="#f" transform="matrix(1,0,0,1,576.2962962962963,465) translate(118.26543209876543 111.22222222222223)"/><use xlink:href="#g" transform="matrix(1,0,0,1,576.2962962962963,465) translate(207.27777777777777 111.22222222222223)"/><use xlink:href="#h" transform="matrix(1,0,0,1,576.2962962962963,465) translate(340.27777777777777 111.22222222222223)"/><path d="M1049.9 210l3.16.07 3.05.2 2.98.3 2.9.43 2.8.53 2.77.65 2.7.76 2.68.87 2.63 1 2.6 1.08 2.6 1.22 2.56 1.34 2.56 1.48 2.55 1.62 2.55 1.77 2.57 1.96 2.57 2.13 2.58 2.3 2.6 2.56 2.63 2.8 2.64 3.07 2.67 3.36 2.7 3.7 2.7 4.08 2.72 4.5 2.73 4.96 2.7 5.5 2.7 6.05 2.66 6.7 2.57 7.38 2.45 8.12 2.28 8.9 2.06 9.7 1.76 10.45 1.4 11.18 1 11.8.5 12.24v12.5l-.52 12.56-1.03 12.36-1.5 11.95-1.94 11.4-2.28 10.7-2.55 9.93-2.76 9.14-2.9 8.36-3 7.6-3.07 6.88-3.1 6.23-3.08 5.62-3.08 5.1-3.05 4.6-3.03 4.15-3 3.76-2.93 3.42-2.9 3.1-2.88 2.8-2.85 2.56-2.8 2.33-2.8 2.12-2.75 1.9-2.75 1.76-2.73 1.6-2.73 1.42-2.75 1.28-2.74 1.16-2.75 1.02-2.78.9-2.7.76" stroke="#000" stroke-width="2" fill="none"/><path d="M1050 209l-.2 2-1-.1.1-.9-.05-1.1zM1060.35 532.43l-14.73-2.83 13.58-6.37z"/><path d="M1061.5 533.67l-19.1-3.67 17.62-8.26zm-12.67-4.47l10.36 2-.82-6.48z"/><path d="M571.3 530l-3.17-.07-3.06-.2-2.97-.3-2.88-.43-2.82-.53-2.76-.65-2.7-.76-2.68-.86-2.63-.98-2.6-1.1-2.58-1.2-2.57-1.35-2.55-1.48-2.55-1.63-2.56-1.77-2.55-1.95-2.57-2.12-2.58-2.33-2.6-2.54-2.62-2.8-2.64-3.05-2.67-3.36-2.7-3.7-2.7-4.07-2.7-4.5-2.74-4.95-2.7-5.47-2.7-6.06-2.65-6.7-2.55-7.36-2.45-8.1-2.28-8.9-2.05-9.67-1.77-10.45-1.4-11.16-1-11.8-.5-12.23v-12.5l.53-12.56 1.03-12.36 1.5-11.96 1.94-11.4 2.28-10.72 2.55-9.95 2.76-9.16 2.9-8.36 3.02-7.6 3.07-6.9 3.1-6.26 3.1-5.64 3.07-5.1 3.06-4.6 3.03-4.17 2.98-3.77 2.95-3.42 2.9-3.1 2.88-2.8 2.84-2.57 2.8-2.32 2.8-2.1 2.76-1.94 2.75-1.74 2.74-1.58 2.74-1.43 2.74-1.3 2.75-1.15 2.75-1.03 2.78-.9 2.72-.76" stroke="#000" stroke-width="2" fill="none"/><path d="M571.3 531h-.1l.1-1.04zM575.8 210.4l-13.6 6.37-1.14-9.2z"/><path d="M579 210l-17.6 8.26-1.5-11.93zm-15.97 5.28l9.55-4.48-10.36-2z"/><defs><path d="M212-179c-10-28-35-45-73-45-59 0-87 40-87 99 0 60 29 101 89 101 43 0 62-24 78-52l27 14C228-24 195 4 139 4 59 4 22-46 18-125c-6-104 99-153 187-111 19 9 31 26 39 46" id="i"/><path d="M100-194c62-1 85 37 85 99 1 63-27 99-86 99S16-35 15-95c0-66 28-99 85-99zM99-20c44 1 53-31 53-75 0-43-8-75-51-75s-53 32-53 75 10 74 51 75" id="j"/><path d="M210-169c-67 3-38 105-44 169h-31v-121c0-29-5-50-35-48C34-165 62-65 56 0H25l-1-190h30c1 10-1 24 2 32 10-44 99-50 107 0 11-21 27-35 58-36 85-2 47 119 55 194h-31v-121c0-29-5-49-35-48" id="k"/><path d="M115-194c55 1 70 41 70 98S169 2 115 4C84 4 66-9 55-30l1 105H24l-1-265h31l2 30c10-21 28-34 59-34zm-8 174c40 0 45-34 45-75s-6-73-45-74c-42 0-51 32-51 76 0 43 10 73 51 73" id="l"/><path d="M84 4C-5 8 30-112 23-190h32v120c0 31 7 50 39 49 72-2 45-101 50-169h31l1 190h-30c-1-10 1-25-2-33-11 22-28 36-60 37" id="m"/><path d="M59-47c-2 24 18 29 38 22v24C64 9 27 4 27-40v-127H5v-23h24l9-43h21v43h35v23H59v120" id="n"/><path d="M100-194c63 0 86 42 84 106H49c0 40 14 67 53 68 26 1 43-12 49-29l28 8c-11 28-37 45-77 45C44 4 14-33 15-96c1-61 26-98 85-98zm52 81c6-60-76-77-97-28-3 7-6 17-6 28h103" id="o"/><path d="M114-163C36-179 61-72 57 0H25l-1-190h30c1 12-1 29 2 39 6-27 23-49 58-41v29" id="p"/><g id="a"><use transform="matrix(0.05,0,0,0.05,0,0)" xlink:href="#i"/><use transform="matrix(0.05,0,0,0.05,12.950000000000001,0)" xlink:href="#j"/><use transform="matrix(0.05,0,0,0.05,22.950000000000003,0)" xlink:href="#k"/><use transform="matrix(0.05,0,0,0.05,37.900000000000006,0)" xlink:href="#l"/><use transform="matrix(0.05,0,0,0.05,47.900000000000006,0)" xlink:href="#m"/><use transform="matrix(0.05,0,0,0.05,57.900000000000006,0)" xlink:href="#n"/><use transform="matrix(0.05,0,0,0.05,62.900000000000006,0)" xlink:href="#o"/><use transform="matrix(0.05,0,0,0.05,72.9,0)" xlink:href="#p"/></g><path d="M185-189c-5-48-123-54-124 2 14 75 158 14 163 119 3 78-121 87-175 55-17-10-28-26-33-46l33-7c5 56 141 63 141-1 0-78-155-14-162-118-5-82 145-84 179-34 5 7 8 16 11 25" id="q"/><path d="M117-194c89-4 53 116 60 194h-32v-121c0-31-8-49-39-48C34-167 62-67 57 0H25l-1-190h30c1 10-1 24 2 32 11-22 29-35 61-36" id="r"/><path d="M135-143c-3-34-86-38-87 0 15 53 115 12 119 90S17 21 10-45l28-5c4 36 97 45 98 0-10-56-113-15-118-90-4-57 82-63 122-42 12 7 21 19 24 35" id="s"/><g id="b"><use transform="matrix(0.05,0,0,0.05,0,0)" xlink:href="#q"/><use transform="matrix(0.05,0,0,0.05,12,0)" xlink:href="#o"/><use transform="matrix(0.05,0,0,0.05,22,0)" xlink:href="#r"/><use transform="matrix(0.05,0,0,0.05,32,0)" xlink:href="#s"/><use transform="matrix(0.05,0,0,0.05,41,0)" xlink:href="#j"/><use transform="matrix(0.05,0,0,0.05,51,0)" xlink:href="#p"/></g><path d="M205 0l-28-72H64L36 0H1l101-248h38L239 0h-34zm-38-99l-47-123c-12 45-31 82-46 123h93" id="t"/><path d="M96-169c-40 0-48 33-48 73s9 75 48 75c24 0 41-14 43-38l32 2c-6 37-31 61-74 61-59 0-76-41-82-99-10-93 101-131 147-64 4 7 5 14 7 22l-32 3c-4-21-16-35-41-35" id="u"/><path d="M141-36C126-15 110 5 73 4 37 3 15-17 15-53c-1-64 63-63 125-63 3-35-9-54-41-54-24 1-41 7-42 31l-33-3c5-37 33-52 76-52 45 0 72 20 72 64v82c-1 20 7 32 28 27v20c-31 9-61-2-59-35zM48-53c0 20 12 33 32 33 41-3 63-29 60-74-43 2-92-5-92 41" id="v"/><g id="c"><use transform="matrix(0.05,0,0,0.05,0,0)" xlink:href="#t"/><use transform="matrix(0.05,0,0,0.05,12,0)" xlink:href="#u"/><use transform="matrix(0.05,0,0,0.05,21,0)" xlink:href="#n"/><use transform="matrix(0.05,0,0,0.05,26,0)" xlink:href="#m"/><use transform="matrix(0.05,0,0,0.05,36,0)" xlink:href="#v"/><use transform="matrix(0.05,0,0,0.05,46,0)" xlink:href="#n"/><use transform="matrix(0.05,0,0,0.05,51,0)" xlink:href="#j"/><use transform="matrix(0.05,0,0,0.05,61,0)" xlink:href="#p"/></g><path d="M30 0v-248h187v28H63v79h144v27H63v87h162V0H30" id="w"/><path d="M108 0H70L1-190h34L89-25l56-165h34" id="x"/><path d="M24-231v-30h32v30H24zM24 0v-190h32V0H24" id="y"/><g id="d"><use transform="matrix(0.1851851851851852,0,0,0.1851851851851852,0,0)" xlink:href="#w"/><use transform="matrix(0.1851851851851852,0,0,0.1851851851851852,44.44444444444445,0)" xlink:href="#r"/><use transform="matrix(0.1851851851851852,0,0,0.1851851851851852,81.4814814814815,0)" xlink:href="#x"/><use transform="matrix(0.1851851851851852,0,0,0.1851851851851852,114.81481481481485,0)" xlink:href="#y"/><use transform="matrix(0.1851851851851852,0,0,0.1851851851851852,129.44444444444446,0)" xlink:href="#p"/><use transform="matrix(0.1851851851851852,0,0,0.1851851851851852,151.4814814814815,0)" xlink:href="#j"/><use transform="matrix(0.1851851851851852,0,0,0.1851851851851852,188.51851851851853,0)" xlink:href="#r"/><use transform="matrix(0.1851851851851852,0,0,0.1851851851851852,225.55555555555557,0)" xlink:href="#k"/><use transform="matrix(0.1851851851851852,0,0,0.1851851851851852,280.9259259259259,0)" xlink:href="#o"/><use transform="matrix(0.1851851851851852,0,0,0.1851851851851852,317.96296296296293,0)" xlink:href="#r"/><use transform="matrix(0.1851851851851852,0,0,0.1851851851851852,355,0)" xlink:href="#n"/></g><path d="M87 75C49 33 22-17 22-94c0-76 28-126 65-167h31c-38 41-64 92-64 168S80 34 118 75H87" id="z"/><path d="M233-177c-1 41-23 64-60 70L243 0h-38l-65-103H63V0H30v-248c88 3 205-21 203 71zM63-129c60-2 137 13 137-47 0-61-80-42-137-45v92" id="A"/><path d="M24 0v-261h32V0H24" id="B"/><g id="e"><use transform="matrix(0.08641975308641976,0,0,0.08641975308641976,0,0)" xlink:href="#z"/><use transform="matrix(0.08641975308641976,0,0,0.08641975308641976,10.283950617283951,0)" xlink:href="#A"/><use transform="matrix(0.08641975308641976,0,0,0.08641975308641976,32.66666666666667,0)" xlink:href="#o"/><use transform="matrix(0.08641975308641976,0,0,0.08641975308641976,49.95061728395062,0)" xlink:href="#v"/><use transform="matrix(0.08641975308641976,0,0,0.08641975308641976,67.23456790123457,0)" xlink:href="#B"/></g><path d="M266 0h-40l-56-210L115 0H75L2-248h35L96-30l15-64 43-154h32l59 218 59-218h35" id="C"/><path d="M85-194c31 0 48 13 60 33l-1-100h32l1 261h-30c-2-10 0-23-3-31C134-8 116 4 85 4 32 4 16-35 15-94c0-66 23-100 70-100zm9 24c-40 0-46 34-46 75 0 40 6 74 45 74 42 0 51-32 51-76 0-42-9-74-50-73" id="D"/><g id="f"><use transform="matrix(0.08641975308641976,0,0,0.08641975308641976,0,0)" xlink:href="#C"/><use transform="matrix(0.08641975308641976,0,0,0.08641975308641976,28.69135802469136,0)" xlink:href="#j"/><use transform="matrix(0.08641975308641976,0,0,0.08641975308641976,45.97530864197531,0)" xlink:href="#p"/><use transform="matrix(0.08641975308641976,0,0,0.08641975308641976,56.25925925925927,0)" xlink:href="#B"/><use transform="matrix(0.08641975308641976,0,0,0.08641975308641976,63.08641975308644,0)" xlink:href="#D"/></g><path d="M197 0v-115H63V0H30v-248h33v105h134v-105h34V0h-34" id="E"/><g id="g"><use transform="matrix(0.08641975308641976,0,0,0.08641975308641976,0,0)" xlink:href="#E"/><use transform="matrix(0.08641975308641976,0,0,0.08641975308641976,22.38271604938272,0)" xlink:href="#v"/><use transform="matrix(0.08641975308641976,0,0,0.08641975308641976,39.66666666666667,0)" xlink:href="#l"/><use transform="matrix(0.08641975308641976,0,0,0.08641975308641976,56.95061728395062,0)" xlink:href="#l"/><use transform="matrix(0.08641975308641976,0,0,0.08641975308641976,74.23456790123457,0)" xlink:href="#o"/><use transform="matrix(0.08641975308641976,0,0,0.08641975308641976,91.51851851851853,0)" xlink:href="#r"/><use transform="matrix(0.08641975308641976,0,0,0.08641975308641976,108.80246913580245,0)" xlink:href="#s"/></g><path d="M63-70H37l-4-178h34zM33 0v-35h34V0H33" id="F"/><path d="M33-261c38 41 65 92 65 168S71 34 33 75H2C39 34 66-17 66-93S39-220 2-261h31" id="G"/><g id="h"><use transform="matrix(0.08641975308641976,0,0,0.08641975308641976,0,0)" xlink:href="#E"/><use transform="matrix(0.08641975308641976,0,0,0.08641975308641976,22.38271604938272,0)" xlink:href="#o"/><use transform="matrix(0.08641975308641976,0,0,0.08641975308641976,39.66666666666667,0)" xlink:href="#p"/><use transform="matrix(0.08641975308641976,0,0,0.08641975308641976,49.95061728395062,0)" xlink:href="#o"/><use transform="matrix(0.08641975308641976,0,0,0.08641975308641976,67.23456790123457,0)" xlink:href="#F"/><use transform="matrix(0.08641975308641976,0,0,0.08641975308641976,75.87654320987654,0)" xlink:href="#G"/></g></defs></g></svg>