<svg xmlns="http://www.w3.org/2000/svg" xmlns:xlink="http://www.w3.org/1999/xlink" xmlns:lucid="lucid" width="1110" height="951"><g transform="translate(-320 -100)" lucid:page-tab-id="0_0"><path d="M819 596h140v60H819z" stroke="#000" stroke-width="2" fill="#fff"/><use xlink:href="#a" transform="matrix(1,0,0,1,823.9993780998097,601) translate(25.574999999999996 28.6)"/><path d="M436 596c13.25 0 24 13.43 24 30s-10.75 30-24 30h-72c-13.25 0-24-13.43-24-30s10.75-30 24-30z" stroke="#000" stroke-width="2" fill="#fff"/><use xlink:href="#b" transform="matrix(1,0,0,1,345,601) translate(8.075000000000003 28.6)"/><path d="M461 626h338.76" stroke="#000" stroke-width="2" fill="none"/><path d="M461 627h-1.08l.08-1-.04-1H461zM814.76 626l-14.26 4.64v-9.28z"/><path d="M818 626l-18.5 6v-12zm-16.5 3.26l10.03-3.26-10.03-3.26z"/><path d="M1351 596c13.25 0 24 13.43 24 30s-10.75 30-24 30h-72c-13.26 0-24-13.43-24-30s10.74-30 24-30z" stroke="#000" stroke-width="2" fill="#fff"/><use xlink:href="#c" transform="matrix(1,0,0,1,1259.9987561996195,601) translate(14.524999999999999 17.799999999999997)"/><use xlink:href="#d" transform="matrix(1,0,0,1,1259.9987561996195,601) translate(31.525 39.4)"/><path d="M960 626h275.76" stroke="#000" stroke-width="2" fill="none"/><path d="M960 627h-1v-2h1zM1250.76 626l-14.26 4.64v-9.28z"/><path d="M1254 626l-18.5 6v-12zm-16.5 3.26l10.03-3.26-10.03-3.26z"/><path d="M520 140v900" fill="none"/><path d="M520 140v4.02m0 8.03v8.04m0 8.03v8.03m0 8.04v8.03m0 8.04v8.03m0 8.04v8.04m0 8.03v8.05m0 8.03v8.04m0 8.03v8.04m0 8.03v8.03m0 8.04v8.03m0 8.04v8.03m0 8.04v8.04m0 8.03v8.05m0 8.03v8.04m0 8.03v8.04m0 8.03v8.03m0 8.04v8.03m0 8.04v8.03m0 8.04v8.04m0 8.03v8.05m0 8.03v8.04m0 8.03v8.04m0 8.03v8.03m0 8.04v8.03m0 8.04v8.03m0 8.04v8.04m0 8.03v8.05m0 8.03v8.04m0 8.03v8.04m0 8.03v8.03m0 8.04v8.03m0 8.04v8.03m0 8.04v8.04m0 8.03v8.05m0 8.03v8.04m0 8.03v8.04m0 8.03v8.03m0 8.04v8.03m0 8.04v8.03m0 8.04v8.04m0 8.03v8.05m0 8.03v8.04m0 8.03v8.04m0 8.03v8.03m0 8.04v8.03m0 8.04v8.03m0 8.04v8.04m0 8.03v8.05m0 8.03v8.04m0 8.03v8.04m0 8.03v8.03m0 8.04v8.03m0 8.04v8.03m0 8.04v8.04m0 8.03v8.05m0 8.03v4.02" stroke="#000" stroke-width="2" fill="none"/><path d="M1139 140v900" fill="none"/><path d="M1139 140v4.02m0 8.03v8.04m0 8.03v8.03m0 8.04v8.03m0 8.04v8.03m0 8.04v8.04m0 8.03v8.05m0 8.03v8.04m0 8.03v8.04m0 8.03v8.03m0 8.04v8.03m0 8.04v8.03m0 8.04v8.04m0 8.03v8.05m0 8.03v8.04m0 8.03v8.04m0 8.03v8.03m0 8.04v8.03m0 8.04v8.03m0 8.04v8.04m0 8.03v8.05m0 8.03v8.04m0 8.03v8.04m0 8.03v8.03m0 8.04v8.03m0 8.04v8.03m0 8.04v8.04m0 8.03v8.05m0 8.03v8.04m0 8.03v8.04m0 8.03v8.03m0 8.04v8.03m0 8.04v8.03m0 8.04v8.04m0 8.03v8.05m0 8.03v8.04m0 8.03v8.04m0 8.03v8.03m0 8.04v8.03m0 8.04v8.03m0 8.04v8.04m0 8.03v8.05m0 8.03v8.04m0 8.03v8.04m0 8.03v8.03m0 8.04v8.03m0 8.04v8.03m0 8.04v8.04m0 8.03v8.05m0 8.03v8.04m0 8.03v8.04m0 8.03v8.03m0 8.04v8.03m0 8.04v8.03m0 8.04v8.04m0 8.03v8.05m0 8.03v4.02" stroke="#000" stroke-width="2" fill="none"/><path d="M350 120h100v60H350z" stroke="#000" stroke-opacity="0" stroke-width="2" fill="#fff" fill-opacity="0"/><use xlink:href="#e" transform="matrix(1,0,0,1,355,125) translate(2.654320987654316 31.22222222222222)"/><path d="M740 120h140v60H740z" stroke="#000" stroke-opacity="0" stroke-width="2" fill="#fff" fill-opacity="0"/><use xlink:href="#f" transform="matrix(1,0,0,1,745,125) translate(8.870370370370367 31.22222222222222)"/><path d="M1280 120h100v60h-100z" stroke="#000" stroke-opacity="0" stroke-width="2" fill="#fff" fill-opacity="0"/><use xlink:href="#g" transform="matrix(1,0,0,1,1285,125) translate(-9.444444444444443 31.22222222222222)"/><path d="M436 700c13.25 0 24 13.43 24 30s-10.75 30-24 30h-72c-13.25 0-24-13.43-24-30s10.75-30 24-30z" stroke="#000" stroke-width="2" fill="#fff"/><use xlink:href="#h" transform="matrix(1,0,0,1,345,705) translate(23.074999999999996 28.6)"/><path d="M461 730h99.76" stroke="#000" stroke-width="2" fill="none"/><path d="M461 731h-1.08l.08-1-.04-1H461zM575.76 730l-14.26 4.64v-9.28z"/><path d="M579 730l-18.5 6v-12zm-16.5 3.26l10.03-3.26-10.03-3.26z"/><path d="M436 500c13.25 0 24 13.43 24 30s-10.75 30-24 30h-72c-13.25 0-24-13.43-24-30s10.75-30 24-30z" stroke="#000" stroke-width="2" fill="#fff"/><use xlink:href="#i" transform="matrix(1,0,0,1,345,505) translate(30.549999999999997 28.6)"/><path d="M461 530l339.26 81.1" stroke="#000" stroke-width="2" fill="none"/><path d="M461.23 529.03l-.46 1.94-.83-.2.06-.77-.05-1.28zM814.85 614.58l-14.95 1.2 2.15-9.02z"/><path d="M818 615.33l-19.4 1.55 2.8-11.7zm-16.8-.66l10.5-.84-9-5.5z"/><path d="M1351 828c13.25 0 24 13.43 24 30s-10.75 30-24 30h-72c-13.26 0-24-13.43-24-30s10.74-30 24-30z" stroke="#000" stroke-width="2" fill="#fff"/><use xlink:href="#j" transform="matrix(1,0,0,1,1259.9987561996195,833) translate(12.299999999999997 17.799999999999997)"/><use xlink:href="#k" transform="matrix(1,0,0,1,1259.9987561996195,833) translate(1.5999999999999943 39.4)"/><use xlink:href="#l" transform="matrix(1,0,0,1,1259.9987561996195,833) translate(48.449999999999996 39.4)"/><path d="M580 700h79v60h-79z" stroke="#000" stroke-width="2" fill="#fff"/><use xlink:href="#m" transform="matrix(1,0,0,1,585,705) translate(15.024999999999999 28.6)"/><path d="M436 836c13.25 0 24 13.43 24 30s-10.75 30-24 30h-72c-13.25 0-24-13.43-24-30s10.75-30 24-30z" stroke="#000" stroke-width="2" fill="#fff"/><use xlink:href="#n" transform="matrix(1,0,0,1,345,841) translate(17.025 28.6)"/><path d="M800 290c0 5.52-17.9 10-40 10s-40-4.48-40-10v-80c0-5.52 17.9-10 40-10s40 4.48 40 10z" stroke="#000" stroke-width="2" fill="#fff"/><path d="M800 210c0 5.52-17.9 10-40 10s-40-4.48-40-10" stroke="#000" stroke-width="2" fill="none"/><use xlink:href="#o" transform="matrix(1,0,0,1,725,225) translate(-3.4750000000000014 38.6)"/><path d="M1000 420h100v80h-100zm10 0v80m-10-70h100" stroke="#000" stroke-width="2" fill="#fff"/><use xlink:href="#p" transform="matrix(1,0,0,1,1015,435) translate(18.525 22.799999999999997)"/><use xlink:href="#q" transform="matrix(1,0,0,1,1015,435) translate(10.024999999999999 44.4)"/><path d="M558 280h101v80H558z" stroke="#000" stroke-width="2" fill="#fff"/><use xlink:href="#r" transform="matrix(1,0,0,1,562.9987561996195,285) translate(5.549999999999997 27.799999999999997)"/><use xlink:href="#s" transform="matrix(1,0,0,1,562.9987561996195,285) translate(19.549999999999997 49.4)"/><path d="M804 424c-13.25 0-24-10.75-24-24 0-10.6 6.5-19.55 16.58-22.83C796 346 836 340 852 352c8-18 48-12 48 6 24-6 48 18 32 48 16 24 0 54-32 42-8 15.6-40 15.6-48 0-16 12-48 6-48-24z" stroke="#000" stroke-width="2" fill="#fff"/><use xlink:href="#t" transform="matrix(1,0,0,1,785,345) translate(51.55 47.8)"/><use xlink:href="#u" transform="matrix(1,0,0,1,785,345) translate(22.074999999999996 69.4)"/><path d="M847 576.76h-2v-3.8h2zm0-11.36h-2v-7.58h2zm0-15.16h-2v-7.58h2zm0-15.16h-2v-7.58h2zm0-15.16h-2v-2.7h2zm0-30.32h-2v-7.58h2zm0-15.16h-2v-3.8h2zM846 591.76l-4.64-14.26h9.28z"/><path d="M846 595l-6-18.5h12zm-3.26-16.5l3.26 10.03 3.26-10.03zM850.64 469.92h-9.28l4.64-14.27z"/><path d="M852 470.92h-12l6-18.5zm-9.26-2h6.52L846 458.9z"/><use xlink:href="#v" transform="matrix(1,0,0,1,815.525,495.62453132655327) translate(0 14.4)"/><path d="M675.13 330.17l88.73 59.66" fill="none"/><path d="M675.13 330.17l3.17 2.13m6.34 4.27l6.34 4.26m6.34 4.26l6.33 4.25m6.34 4.26l6.33 4.27m6.34 4.26l6.34 4.26m6.34 4.25l6.34 4.26m6.34 4.27l6.34 4.26m6.34 4.27l3.16 2.13" stroke="#000" stroke-width="2" fill="none"/><path d="M677.1 325.92l-5.16 7.7-9.26-11.8z"/><path d="M678.7 325.33l-6.7 9.98-12-15.3zm-6.82 6.58l3.63-5.4-10.13-2.9zM776.3 398.2l-14.4-4.12 5.16-7.7z"/><path d="M779 400l-18.7-5.33 6.7-9.98zm-15.5-6.5l10.13 2.9-6.5-8.3z"/><path d="M812.68 264l51.9 62.26" fill="none"/><path d="M812.68 264l2.6 3.12m5.18 6.22l5.2 6.23m5.18 6.22l5.2 6.22m5.18 6.22l5.2 6.23m5.18 6.23l5.2 6.22m5.18 6.23l2.6 3.1" stroke="#000" stroke-width="2" fill="none"/><path d="M815.77 260.47l-7.12 5.94-5.58-13.9z"/><path d="M817.47 260.36l-9.24 7.7L801 250zm-8.4 4.4l5-4.17-8.93-5.63zM874.18 337.78l-12.7-8 7.13-5.93z"/><path d="M876.25 340.26L859.8 329.9l9.22-7.7zm-13.07-10.58l8.93 5.6-3.9-9.78z"/><path d="M626.14 274.37l75.22-19.74" fill="none"/><path d="M626.14 274.37l3.76-1m7.52-1.96l7.52-1.96m7.53-1.98l7.52-1.97m7.5-2l7.53-1.96m7.53-1.98l7.52-1.97m7.52-1.98l3.76-1" stroke="#000" stroke-width="2" fill="none"/><path d="M626.6 279.04l-14.97-.86 12.62-8.1z"/><path d="M627.9 280h-2.03l-17.37-1 16.37-10.5zm-13.14-2.64l10.53.6-1.67-6.3zM715.87 250.82l-12.62 8.1-2.36-8.96z"/><path d="M719 250l-16.37 10.5-3.05-11.62zm-15.13 7.34l8.87-5.7-10.53-.6z"/><path d="M660 730l142.13-80.36" stroke="#000" stroke-width="2" fill="none"/><path d="M660.5 730.87l-1.5.84v-2.28l.5-.3zM805.05 653.32l-4.57-8.07 14.7-3z"/><path d="M804.85 655l-5.92-10.46 19.07-3.87zm-2.82-9.05l3.2 5.68 7.14-7.78z"/><path d="M954.5 820h129v76h-129z" stroke="#000" stroke-width="2" fill="#fff"/><use xlink:href="#w" transform="matrix(1,0,0,1,959.4996890499049,825) translate(32.55 25.799999999999997)"/><use xlink:href="#x" transform="matrix(1,0,0,1,959.4996890499049,825) translate(20.624999999999993 47.4)"/><path d="M900.4 671.22l107.2 133.56" stroke="#000" stroke-width="2" fill="none"/><path d="M903.57 667.75l-7.23 5.8-5.32-14.03z"/><path d="M905.27 667.67l-9.38 7.52L889 657zm-8.48 4.24l5.07-4.07-8.82-5.78zM1016.97 816.48l-12.54-8.23 7.23-5.8z"/><path d="M1019 819l-16.27-10.67 9.38-7.52zm-12.87-10.83l8.82 5.78-3.74-9.86z"/><path d="M460.97 865.2l474.3-6.12" stroke="#000" stroke-width="2" fill="none"/><path d="M461 866.2l-1.02.02.02-.22-.06-1.77 1.02-.02zM950.26 858.9l-14.2 4.8-.12-9.26z"/><path d="M953.5 858.85l-18.42 6.25-.16-12.03zm-16.46 3.47l10-3.4-10.08-3.12z"/><path d="M1084.5 858h151.26" stroke="#000" stroke-width="2" fill="none"/><path d="M1084.5 859h-1v-2h1zM1250.76 858l-14.26 4.64v-9.28z"/><path d="M1254 858l-18.5 6v-12zm-16.5 3.26l10.03-3.26-10.03-3.26z"/><path d="M889 595l98.48-120.86" stroke="#000" stroke-width="2" fill="none"/><path d="M889.77 595.63l-.3.37h-2.58l1.32-1.63zM991.54 476.5l-7.2-5.86 12.62-8.13z"/><path d="M991.97 478.14l-9.32-7.6L999 460zm-5.92-7.4l5.05 4.1 3.8-9.82z"/><path d="M1030 501l-70.62 80.3" stroke="#000" stroke-width="2" fill="none"/><path d="M1030.75 501.66l-1.5-1.32.3-.34h2.66zM962.37 584.92l-12.9 7.65 5.94-13.77z"/><path d="M964.07 585.08L947.33 595l7.7-17.86zm-12.46 5.06l9.08-5.38-4.9-4.3z"/><path d="M1250 190h160v120h-160z" stroke="#000" stroke-width="2" fill="#fff"/><path d="M1266 190v120m128-120v120" stroke="#000" stroke-width="2" fill="none"/><use xlink:href="#y" transform="matrix(1,0,0,1,1275,195) translate(8.574999999999996 47.8)"/><use xlink:href="#z" transform="matrix(1,0,0,1,1275,195) translate(11.074999999999996 69.4)"/><path d="M1101 460l213.7-139.05" stroke="#000" stroke-width="2" fill="none"/><path d="M1101.55 460.84l-1.55 1v-2.38l.45-.3zM1317.86 324.43l-5.06-7.77 14.5-3.9z"/><path d="M1317.77 326.13l-6.56-10.08L1330 311zm-3.38-8.86l3.55 5.46 6.63-8.2z"/><path d="M801 250h429.76" stroke="#000" stroke-width="2" fill="none"/><path d="M801 251h-1v-2h1zM1245.76 250l-14.26 4.64v-9.28z"/><path d="M1249 250l-18.5 6v-12zm-16.5 3.26l10.03-3.26-10.03-3.26z"/><path d="M436 370c13.25 0 24 13.43 24 30s-10.75 30-24 30h-72c-13.25 0-24-13.43-24-30s10.75-30 24-30z" stroke="#000" stroke-width="2" fill="#fff"/><use xlink:href="#A" transform="matrix(1,0,0,1,345,375) translate(11.099999999999994 17.799999999999997)"/><use xlink:href="#B" transform="matrix(1,0,0,1,345,375) translate(56.949999999999996 17.799999999999997)"/><use xlink:href="#C" transform="matrix(1,0,0,1,345,375) translate(36.025 39.4)"/><path d="M461 400h299.76" stroke="#000" stroke-width="2" fill="none"/><path d="M461 401h-1.08l.08-1-.04-1H461zM775.76 400l-14.26 4.64v-9.28z"/><path d="M779 400l-18.5 6v-12zm-16.5 3.26l10.03-3.26-10.03-3.26z"/><path d="M1315 889l-1.1 2.14-1.22 2.18-1.4 2.24-1.56 2.3-1.76 2.37-2 2.46-2.26 2.55-2.57 2.68-2.93 2.8-3.35 2.95-3.85 3.12-4.47 3.3-5.2 3.53-6.1 3.77-7.2 4.05-8.58 4.37-10.35 4.72-12.58 5.12-15.46 5.55-19.23 6-24.15 6.45-30.6 6.8-38.96 6.96-49.38 6.7-61.34 5.74-72.9 3.75-80.45.8-80.45-2.56-72.72-5.34-60.65-7-48.12-7.6-37.3-7.5-28.77-7.06-22.3-6.47-17.48-5.87-13.83-5.3-11.1-4.8-9.02-4.37-7.4-3.96-6.14-3.63-5.14-3.34-4.34-3.1-3.7-2.86-3.17-2.67-.36-.34" stroke="#000" stroke-width="2" fill="none"/><path d="M1315.84 889.55l-1.68-1.1.3-.45h2.38zM415.06 907.05l-6.94 6.13-5.98-13.76z"/><path d="M416.76 906.88l-9 7.97L400 897zm-8.27 4.64l4.87-4.3-9.08-5.37z"/><defs><path d="M212-179c-10-28-35-45-73-45-59 0-87 40-87 99 0 60 29 101 89 101 43 0 62-24 78-52l27 14C228-24 195 4 139 4 59 4 22-46 18-125c-6-104 99-153 187-111 19 9 31 26 39 46" id="D"/><path d="M100-194c62-1 85 37 85 99 1 63-27 99-86 99S16-35 15-95c0-66 28-99 85-99zM99-20c44 1 53-31 53-75 0-43-8-75-51-75s-53 32-53 75 10 74 51 75" id="E"/><path d="M210-169c-67 3-38 105-44 169h-31v-121c0-29-5-50-35-48C34-165 62-65 56 0H25l-1-190h30c1 10-1 24 2 32 10-44 99-50 107 0 11-21 27-35 58-36 85-2 47 119 55 194h-31v-121c0-29-5-49-35-48" id="F"/><path d="M115-194c55 1 70 41 70 98S169 2 115 4C84 4 66-9 55-30l1 105H24l-1-265h31l2 30c10-21 28-34 59-34zm-8 174c40 0 45-34 45-75s-6-73-45-74c-42 0-51 32-51 76 0 43 10 73 51 73" id="G"/><path d="M84 4C-5 8 30-112 23-190h32v120c0 31 7 50 39 49 72-2 45-101 50-169h31l1 190h-30c-1-10 1-25-2-33-11 22-28 36-60 37" id="H"/><path d="M59-47c-2 24 18 29 38 22v24C64 9 27 4 27-40v-127H5v-23h24l9-43h21v43h35v23H59v120" id="I"/><path d="M100-194c63 0 86 42 84 106H49c0 40 14 67 53 68 26 1 43-12 49-29l28 8c-11 28-37 45-77 45C44 4 14-33 15-96c1-61 26-98 85-98zm52 81c6-60-76-77-97-28-3 7-6 17-6 28h103" id="J"/><path d="M114-163C36-179 61-72 57 0H25l-1-190h30c1 12-1 29 2 39 6-27 23-49 58-41v29" id="K"/><g id="a"><use transform="matrix(0.05,0,0,0.05,0,0)" xlink:href="#D"/><use transform="matrix(0.05,0,0,0.05,12.950000000000001,0)" xlink:href="#E"/><use transform="matrix(0.05,0,0,0.05,22.950000000000003,0)" xlink:href="#F"/><use transform="matrix(0.05,0,0,0.05,37.900000000000006,0)" xlink:href="#G"/><use transform="matrix(0.05,0,0,0.05,47.900000000000006,0)" xlink:href="#H"/><use transform="matrix(0.05,0,0,0.05,57.900000000000006,0)" xlink:href="#I"/><use transform="matrix(0.05,0,0,0.05,62.900000000000006,0)" xlink:href="#J"/><use transform="matrix(0.05,0,0,0.05,72.9,0)" xlink:href="#K"/></g><path d="M240 0l2-218c-23 76-54 145-80 218h-23L58-218 59 0H30v-248h44l77 211c21-75 51-140 76-211h43V0h-30" id="L"/><path d="M24-231v-30h32v30H24zM24 0v-190h32V0H24" id="M"/><path d="M96-169c-40 0-48 33-48 73s9 75 48 75c24 0 41-14 43-38l32 2c-6 37-31 61-74 61-59 0-76-41-82-99-10-93 101-131 147-64 4 7 5 14 7 22l-32 3c-4-21-16-35-41-35" id="N"/><path d="M106-169C34-169 62-67 57 0H25v-261h32l-1 103c12-21 28-36 61-36 89 0 53 116 60 194h-32v-121c2-32-8-49-39-48" id="O"/><path d="M117-194c89-4 53 116 60 194h-32v-121c0-31-8-49-39-48C34-167 62-67 57 0H25l-1-190h30c1 10-1 24 2 32 11-22 29-35 61-36" id="P"/><g id="b"><use transform="matrix(0.05,0,0,0.05,0,0)" xlink:href="#L"/><use transform="matrix(0.05,0,0,0.05,14.950000000000001,0)" xlink:href="#M"/><use transform="matrix(0.05,0,0,0.05,18.900000000000002,0)" xlink:href="#N"/><use transform="matrix(0.05,0,0,0.05,27.900000000000002,0)" xlink:href="#K"/><use transform="matrix(0.05,0,0,0.05,33.85,0)" xlink:href="#E"/><use transform="matrix(0.05,0,0,0.05,43.85,0)" xlink:href="#G"/><use transform="matrix(0.05,0,0,0.05,53.85,0)" xlink:href="#O"/><use transform="matrix(0.05,0,0,0.05,63.85,0)" xlink:href="#E"/><use transform="matrix(0.05,0,0,0.05,73.85,0)" xlink:href="#P"/><use transform="matrix(0.05,0,0,0.05,83.85,0)" xlink:href="#J"/></g><path d="M33 0v-248h34V0H33" id="Q"/><path d="M177-190C167-65 218 103 67 71c-23-6-38-20-44-43l32-5c15 47 100 32 89-28v-30C133-14 115 1 83 1 29 1 15-40 15-95c0-56 16-97 71-98 29-1 48 16 59 35 1-10 0-23 2-32h30zM94-22c36 0 50-32 50-73 0-42-14-75-50-75-39 0-46 34-46 75s6 73 46 73" id="R"/><path d="M141-36C126-15 110 5 73 4 37 3 15-17 15-53c-1-64 63-63 125-63 3-35-9-54-41-54-24 1-41 7-42 31l-33-3c5-37 33-52 76-52 45 0 72 20 72 64v82c-1 20 7 32 28 27v20c-31 9-61-2-59-35zM48-53c0 20 12 33 32 33 41-3 63-29 60-74-43 2-92-5-92 41" id="S"/><path d="M85-194c31 0 48 13 60 33l-1-100h32l1 261h-30c-2-10 0-23-3-31C134-8 116 4 85 4 32 4 16-35 15-94c0-66 23-100 70-100zm9 24c-40 0-46 34-46 75 0 40 6 74 45 74 42 0 51-32 51-76 0-42-9-74-50-73" id="T"/><g id="c"><use transform="matrix(0.05,0,0,0.05,0,0)" xlink:href="#Q"/><use transform="matrix(0.05,0,0,0.05,5,0)" xlink:href="#P"/><use transform="matrix(0.05,0,0,0.05,15,0)" xlink:href="#I"/><use transform="matrix(0.05,0,0,0.05,20,0)" xlink:href="#J"/><use transform="matrix(0.05,0,0,0.05,30,0)" xlink:href="#R"/><use transform="matrix(0.05,0,0,0.05,40,0)" xlink:href="#K"/><use transform="matrix(0.05,0,0,0.05,45.95,0)" xlink:href="#S"/><use transform="matrix(0.05,0,0,0.05,55.95,0)" xlink:href="#I"/><use transform="matrix(0.05,0,0,0.05,60.95,0)" xlink:href="#J"/><use transform="matrix(0.05,0,0,0.05,70.95,0)" xlink:href="#T"/></g><path d="M185-189c-5-48-123-54-124 2 14 75 158 14 163 119 3 78-121 87-175 55-17-10-28-26-33-46l33-7c5 56 141 63 141-1 0-78-155-14-162-118-5-82 145-84 179-34 5 7 8 16 11 25" id="U"/><path d="M108 0H70L1-190h34L89-25l56-165h34" id="V"/><g id="d"><use transform="matrix(0.05,0,0,0.05,0,0)" xlink:href="#U"/><use transform="matrix(0.05,0,0,0.05,12,0)" xlink:href="#J"/><use transform="matrix(0.05,0,0,0.05,22,0)" xlink:href="#K"/><use transform="matrix(0.05,0,0,0.05,27.950000000000003,0)" xlink:href="#V"/><use transform="matrix(0.05,0,0,0.05,36.95,0)" xlink:href="#E"/></g><path d="M135-143c-3-34-86-38-87 0 15 53 115 12 119 90S17 21 10-45l28-5c4 36 97 45 98 0-10-56-113-15-118-90-4-57 82-63 122-42 12 7 21 19 24 35" id="W"/><g id="e"><use transform="matrix(0.08641975308641976,0,0,0.08641975308641976,0,0)" xlink:href="#Q"/><use transform="matrix(0.08641975308641976,0,0,0.08641975308641976,8.641975308641976,0)" xlink:href="#P"/><use transform="matrix(0.08641975308641976,0,0,0.08641975308641976,25.925925925925927,0)" xlink:href="#G"/><use transform="matrix(0.08641975308641976,0,0,0.08641975308641976,43.20987654320989,0)" xlink:href="#H"/><use transform="matrix(0.08641975308641976,0,0,0.08641975308641976,60.49382716049384,0)" xlink:href="#I"/><use transform="matrix(0.08641975308641976,0,0,0.08641975308641976,69.13580246913581,0)" xlink:href="#W"/></g><path d="M30-248c87 1 191-15 191 75 0 78-77 80-158 76V0H30v-248zm33 125c57 0 124 11 124-50 0-59-68-47-124-48v98" id="X"/><g id="f"><use transform="matrix(0.08641975308641976,0,0,0.08641975308641976,0,0)" xlink:href="#X"/><use transform="matrix(0.08641975308641976,0,0,0.08641975308641976,20.740740740740744,0)" xlink:href="#K"/><use transform="matrix(0.08641975308641976,0,0,0.08641975308641976,31.024691358024693,0)" xlink:href="#E"/><use transform="matrix(0.08641975308641976,0,0,0.08641975308641976,48.308641975308646,0)" xlink:href="#N"/><use transform="matrix(0.08641975308641976,0,0,0.08641975308641976,63.8641975308642,0)" xlink:href="#J"/><use transform="matrix(0.08641975308641976,0,0,0.08641975308641976,81.14814814814815,0)" xlink:href="#W"/><use transform="matrix(0.08641975308641976,0,0,0.08641975308641976,96.70370370370371,0)" xlink:href="#W"/></g><path d="M140-251c81 0 123 46 123 126C263-46 219 4 140 4 59 4 17-45 17-125s42-126 123-126zm0 227c63 0 89-41 89-101s-29-99-89-99c-61 0-89 39-89 99S79-25 140-24" id="Y"/><g id="g"><use transform="matrix(0.08641975308641976,0,0,0.08641975308641976,0,0)" xlink:href="#Y"/><use transform="matrix(0.08641975308641976,0,0,0.08641975308641976,24.19753086419753,0)" xlink:href="#H"/><use transform="matrix(0.08641975308641976,0,0,0.08641975308641976,41.48148148148148,0)" xlink:href="#I"/><use transform="matrix(0.08641975308641976,0,0,0.08641975308641976,50.123456790123456,0)" xlink:href="#G"/><use transform="matrix(0.08641975308641976,0,0,0.08641975308641976,67.4074074074074,0)" xlink:href="#H"/><use transform="matrix(0.08641975308641976,0,0,0.08641975308641976,84.69135802469135,0)" xlink:href="#I"/><use transform="matrix(0.08641975308641976,0,0,0.08641975308641976,93.33333333333333,0)" xlink:href="#W"/></g><g id="h"><use transform="matrix(0.05,0,0,0.05,0,0)" xlink:href="#D"/><use transform="matrix(0.05,0,0,0.05,12.950000000000001,0)" xlink:href="#S"/><use transform="matrix(0.05,0,0,0.05,22.950000000000003,0)" xlink:href="#F"/><use transform="matrix(0.05,0,0,0.05,37.900000000000006,0)" xlink:href="#J"/><use transform="matrix(0.05,0,0,0.05,47.900000000000006,0)" xlink:href="#K"/><use transform="matrix(0.05,0,0,0.05,53.85,0)" xlink:href="#S"/></g><path d="M233-177c-1 41-23 64-60 70L243 0h-38l-65-103H63V0H30v-248c88 3 205-21 203 71zM63-129c60-2 137 13 137-47 0-61-80-42-137-45v92" id="Z"/><g id="i"><use transform="matrix(0.05,0,0,0.05,0,0)" xlink:href="#Z"/><use transform="matrix(0.05,0,0,0.05,12.950000000000001,0)" xlink:href="#S"/><use transform="matrix(0.05,0,0,0.05,22.950000000000003,0)" xlink:href="#T"/><use transform="matrix(0.05,0,0,0.05,32.95,0)" xlink:href="#S"/><use transform="matrix(0.05,0,0,0.05,42.95,0)" xlink:href="#K"/></g><path d="M30-248c118-7 216 8 213 122C240-48 200 0 122 0H30v-248zM63-27c89 8 146-16 146-99s-60-101-146-95v194" id="aa"/><path d="M101-234c-31-9-42 10-38 44h38v23H63V0H32v-167H5v-23h27c-7-52 17-82 69-68v24" id="ab"/><path d="M24 0v-261h32V0H24" id="ac"/><g id="j"><use transform="matrix(0.05,0,0,0.05,0,0)" xlink:href="#aa"/><use transform="matrix(0.05,0,0,0.05,12.950000000000001,0)" xlink:href="#M"/><use transform="matrix(0.05,0,0,0.05,16.900000000000002,0)" xlink:href="#ab"/><use transform="matrix(0.05,0,0,0.05,21.55,0)" xlink:href="#ab"/><use transform="matrix(0.05,0,0,0.05,26.55,0)" xlink:href="#J"/><use transform="matrix(0.05,0,0,0.05,36.55,0)" xlink:href="#K"/><use transform="matrix(0.05,0,0,0.05,42.5,0)" xlink:href="#J"/><use transform="matrix(0.05,0,0,0.05,52.5,0)" xlink:href="#P"/><use transform="matrix(0.05,0,0,0.05,62.5,0)" xlink:href="#I"/><use transform="matrix(0.05,0,0,0.05,67.5,0)" xlink:href="#M"/><use transform="matrix(0.05,0,0,0.05,71.45,0)" xlink:href="#S"/><use transform="matrix(0.05,0,0,0.05,81.45,0)" xlink:href="#ac"/></g><g id="k"><use transform="matrix(0.05,0,0,0.05,0,0)" xlink:href="#aa"/><use transform="matrix(0.05,0,0,0.05,12.950000000000001,0)" xlink:href="#K"/><use transform="matrix(0.05,0,0,0.05,18.900000000000002,0)" xlink:href="#M"/><use transform="matrix(0.05,0,0,0.05,22.85,0)" xlink:href="#V"/><use transform="matrix(0.05,0,0,0.05,31.85,0)" xlink:href="#J"/></g><path d="M179-190L93 31C79 59 56 82 12 73V49c39 6 53-20 64-50L1-190h34L92-34l54-156h33" id="ad"/><g id="l"><use transform="matrix(0.05,0,0,0.05,0,0)" xlink:href="#U"/><use transform="matrix(0.05,0,0,0.05,12,0)" xlink:href="#ad"/><use transform="matrix(0.05,0,0,0.05,21,0)" xlink:href="#W"/><use transform="matrix(0.05,0,0,0.05,30,0)" xlink:href="#I"/><use transform="matrix(0.05,0,0,0.05,35,0)" xlink:href="#J"/><use transform="matrix(0.05,0,0,0.05,45,0)" xlink:href="#F"/></g><path d="M143 4C61 4 22-44 18-125c-5-107 100-154 193-111 17 8 29 25 37 43l-32 9c-13-25-37-40-76-40-61 0-88 39-88 99 0 61 29 100 91 101 35 0 62-11 79-27v-45h-74v-28h105v86C228-13 192 4 143 4" id="ae"/><path d="M232-93c-1 65-40 97-104 97C67 4 28-28 28-90v-158h33c8 89-33 224 67 224 102 0 64-133 71-224h33v155" id="af"/><g id="m"><use transform="matrix(0.05,0,0,0.05,0,0)" xlink:href="#ae"/><use transform="matrix(0.05,0,0,0.05,14,0)" xlink:href="#X"/><use transform="matrix(0.05,0,0,0.05,26,0)" xlink:href="#af"/></g><path d="M30 0v-248h187v28H63v79h144v27H63v87h162V0H30" id="ag"/><g id="n"><use transform="matrix(0.05,0,0,0.05,0,0)" xlink:href="#ag"/><use transform="matrix(0.05,0,0,0.05,12,0)" xlink:href="#P"/><use transform="matrix(0.05,0,0,0.05,22,0)" xlink:href="#N"/><use transform="matrix(0.05,0,0,0.05,31,0)" xlink:href="#E"/><use transform="matrix(0.05,0,0,0.05,41,0)" xlink:href="#T"/><use transform="matrix(0.05,0,0,0.05,51,0)" xlink:href="#J"/><use transform="matrix(0.05,0,0,0.05,61,0)" xlink:href="#K"/><use transform="matrix(0.05,0,0,0.05,66.95,0)" xlink:href="#W"/></g><path d="M115-194c53 0 69 39 70 98 0 66-23 100-70 100C84 3 66-7 56-30L54 0H23l1-261h32v101c10-23 28-34 59-34zm-8 174c40 0 45-34 45-75 0-40-5-75-45-74-42 0-51 32-51 76 0 43 10 73 51 73" id="ah"/><g id="o"><use transform="matrix(0.05,0,0,0.05,0,0)" xlink:href="#aa"/><use transform="matrix(0.05,0,0,0.05,12.950000000000001,0)" xlink:href="#S"/><use transform="matrix(0.05,0,0,0.05,22.950000000000003,0)" xlink:href="#I"/><use transform="matrix(0.05,0,0,0.05,27.950000000000003,0)" xlink:href="#S"/><use transform="matrix(0.05,0,0,0.05,37.95,0)" xlink:href="#ah"/><use transform="matrix(0.05,0,0,0.05,47.95,0)" xlink:href="#S"/><use transform="matrix(0.05,0,0,0.05,57.95,0)" xlink:href="#W"/><use transform="matrix(0.05,0,0,0.05,66.95,0)" xlink:href="#J"/></g><path d="M30 0v-248h33v221h125V0H30" id="ai"/><g id="p"><use transform="matrix(0.05,0,0,0.05,0,0)" xlink:href="#ai"/><use transform="matrix(0.05,0,0,0.05,10,0)" xlink:href="#E"/><use transform="matrix(0.05,0,0,0.05,20,0)" xlink:href="#N"/><use transform="matrix(0.05,0,0,0.05,29,0)" xlink:href="#S"/><use transform="matrix(0.05,0,0,0.05,39,0)" xlink:href="#ac"/></g><g id="q"><use transform="matrix(0.05,0,0,0.05,0,0)" xlink:href="#W"/><use transform="matrix(0.05,0,0,0.05,9,0)" xlink:href="#I"/><use transform="matrix(0.05,0,0,0.05,14,0)" xlink:href="#E"/><use transform="matrix(0.05,0,0,0.05,24,0)" xlink:href="#K"/><use transform="matrix(0.05,0,0,0.05,29.950000000000003,0)" xlink:href="#S"/><use transform="matrix(0.05,0,0,0.05,39.95,0)" xlink:href="#R"/><use transform="matrix(0.05,0,0,0.05,49.95,0)" xlink:href="#J"/></g><g id="r"><use transform="matrix(0.05,0,0,0.05,0,0)" xlink:href="#aa"/><use transform="matrix(0.05,0,0,0.05,12.950000000000001,0)" xlink:href="#J"/><use transform="matrix(0.05,0,0,0.05,22.950000000000003,0)" xlink:href="#T"/><use transform="matrix(0.05,0,0,0.05,32.95,0)" xlink:href="#M"/><use transform="matrix(0.05,0,0,0.05,36.900000000000006,0)" xlink:href="#N"/><use transform="matrix(0.05,0,0,0.05,45.900000000000006,0)" xlink:href="#S"/><use transform="matrix(0.05,0,0,0.05,55.900000000000006,0)" xlink:href="#I"/><use transform="matrix(0.05,0,0,0.05,60.900000000000006,0)" xlink:href="#J"/><use transform="matrix(0.05,0,0,0.05,70.9,0)" xlink:href="#T"/></g><g id="s"><use transform="matrix(0.05,0,0,0.05,0,0)" xlink:href="#U"/><use transform="matrix(0.05,0,0,0.05,12,0)" xlink:href="#J"/><use transform="matrix(0.05,0,0,0.05,22,0)" xlink:href="#K"/><use transform="matrix(0.05,0,0,0.05,27.950000000000003,0)" xlink:href="#V"/><use transform="matrix(0.05,0,0,0.05,36.95,0)" xlink:href="#J"/><use transform="matrix(0.05,0,0,0.05,46.95,0)" xlink:href="#K"/></g><g id="t"><use transform="matrix(0.05,0,0,0.05,0,0)" xlink:href="#D"/><use transform="matrix(0.05,0,0,0.05,12.950000000000001,0)" xlink:href="#ac"/><use transform="matrix(0.05,0,0,0.05,16.900000000000002,0)" xlink:href="#E"/><use transform="matrix(0.05,0,0,0.05,26.900000000000002,0)" xlink:href="#H"/><use transform="matrix(0.05,0,0,0.05,36.900000000000006,0)" xlink:href="#T"/></g><g id="u"><use transform="matrix(0.05,0,0,0.05,0,0)" xlink:href="#Q"/><use transform="matrix(0.05,0,0,0.05,5,0)" xlink:href="#P"/><use transform="matrix(0.05,0,0,0.05,15,0)" xlink:href="#ab"/><use transform="matrix(0.05,0,0,0.05,20,0)" xlink:href="#K"/><use transform="matrix(0.05,0,0,0.05,25.950000000000003,0)" xlink:href="#S"/><use transform="matrix(0.05,0,0,0.05,35.95,0)" xlink:href="#W"/><use transform="matrix(0.05,0,0,0.05,44.95,0)" xlink:href="#I"/><use transform="matrix(0.05,0,0,0.05,49.95,0)" xlink:href="#K"/><use transform="matrix(0.05,0,0,0.05,55.900000000000006,0)" xlink:href="#H"/><use transform="matrix(0.05,0,0,0.05,65.9,0)" xlink:href="#N"/><use transform="matrix(0.05,0,0,0.05,74.9,0)" xlink:href="#I"/><use transform="matrix(0.05,0,0,0.05,79.9,0)" xlink:href="#H"/><use transform="matrix(0.05,0,0,0.05,89.9,0)" xlink:href="#K"/><use transform="matrix(0.05,0,0,0.05,95.85000000000001,0)" xlink:href="#J"/></g><g id="v"><use transform="matrix(0.05,0,0,0.05,0,0)" xlink:href="#Q"/><use transform="matrix(0.05,0,0,0.05,5,0)" xlink:href="#P"/><use transform="matrix(0.05,0,0,0.05,15,0)" xlink:href="#I"/><use transform="matrix(0.05,0,0,0.05,20,0)" xlink:href="#J"/><use transform="matrix(0.05,0,0,0.05,30,0)" xlink:href="#K"/><use transform="matrix(0.05,0,0,0.05,35.95,0)" xlink:href="#P"/><use transform="matrix(0.05,0,0,0.05,45.95,0)" xlink:href="#J"/><use transform="matrix(0.05,0,0,0.05,55.95,0)" xlink:href="#I"/></g><g id="w"><use transform="matrix(0.05,0,0,0.05,0,0)" xlink:href="#L"/><use transform="matrix(0.05,0,0,0.05,14.950000000000001,0)" xlink:href="#E"/><use transform="matrix(0.05,0,0,0.05,24.950000000000003,0)" xlink:href="#I"/><use transform="matrix(0.05,0,0,0.05,29.950000000000003,0)" xlink:href="#M"/><use transform="matrix(0.05,0,0,0.05,33.900000000000006,0)" xlink:href="#E"/><use transform="matrix(0.05,0,0,0.05,43.900000000000006,0)" xlink:href="#P"/></g><g id="x"><use transform="matrix(0.05,0,0,0.05,0,0)" xlink:href="#D"/><use transform="matrix(0.05,0,0,0.05,12.950000000000001,0)" xlink:href="#E"/><use transform="matrix(0.05,0,0,0.05,22.950000000000003,0)" xlink:href="#P"/><use transform="matrix(0.05,0,0,0.05,32.95,0)" xlink:href="#I"/><use transform="matrix(0.05,0,0,0.05,37.95,0)" xlink:href="#K"/><use transform="matrix(0.05,0,0,0.05,43.900000000000006,0)" xlink:href="#E"/><use transform="matrix(0.05,0,0,0.05,53.900000000000006,0)" xlink:href="#ac"/><use transform="matrix(0.05,0,0,0.05,57.85,0)" xlink:href="#ac"/><use transform="matrix(0.05,0,0,0.05,61.80000000000001,0)" xlink:href="#J"/><use transform="matrix(0.05,0,0,0.05,71.80000000000001,0)" xlink:href="#K"/></g><g id="y"><use transform="matrix(0.05,0,0,0.05,0,0)" xlink:href="#aa"/><use transform="matrix(0.05,0,0,0.05,12.950000000000001,0)" xlink:href="#M"/><use transform="matrix(0.05,0,0,0.05,16.900000000000002,0)" xlink:href="#S"/><use transform="matrix(0.05,0,0,0.05,26.900000000000002,0)" xlink:href="#R"/><use transform="matrix(0.05,0,0,0.05,36.900000000000006,0)" xlink:href="#P"/><use transform="matrix(0.05,0,0,0.05,46.900000000000006,0)" xlink:href="#E"/><use transform="matrix(0.05,0,0,0.05,56.900000000000006,0)" xlink:href="#W"/><use transform="matrix(0.05,0,0,0.05,65.9,0)" xlink:href="#I"/><use transform="matrix(0.05,0,0,0.05,70.9,0)" xlink:href="#M"/><use transform="matrix(0.05,0,0,0.05,74.85000000000001,0)" xlink:href="#N"/><use transform="matrix(0.05,0,0,0.05,83.85000000000001,0)" xlink:href="#W"/></g><path d="M205 0l-28-72H64L36 0H1l101-248h38L239 0h-34zm-38-99l-47-123c-12 45-31 82-46 123h93" id="aj"/><g id="z"><use transform="matrix(0.05,0,0,0.05,0,0)" xlink:href="#aj"/><use transform="matrix(0.05,0,0,0.05,12,0)" xlink:href="#G"/><use transform="matrix(0.05,0,0,0.05,22,0)" xlink:href="#G"/><use transform="matrix(0.05,0,0,0.05,32,0)" xlink:href="#ac"/><use transform="matrix(0.05,0,0,0.05,35.95,0)" xlink:href="#M"/><use transform="matrix(0.05,0,0,0.05,39.900000000000006,0)" xlink:href="#N"/><use transform="matrix(0.05,0,0,0.05,48.900000000000006,0)" xlink:href="#S"/><use transform="matrix(0.05,0,0,0.05,58.900000000000006,0)" xlink:href="#I"/><use transform="matrix(0.05,0,0,0.05,63.900000000000006,0)" xlink:href="#M"/><use transform="matrix(0.05,0,0,0.05,67.85000000000001,0)" xlink:href="#E"/><use transform="matrix(0.05,0,0,0.05,77.85000000000001,0)" xlink:href="#P"/></g><path d="M127-220V0H93v-220H8v-28h204v28h-85" id="ak"/><g id="A"><use transform="matrix(0.05,0,0,0.05,0,0)" xlink:href="#ak"/><use transform="matrix(0.05,0,0,0.05,10.950000000000001,0)" xlink:href="#O"/><use transform="matrix(0.05,0,0,0.05,20.950000000000003,0)" xlink:href="#M"/><use transform="matrix(0.05,0,0,0.05,24.900000000000002,0)" xlink:href="#K"/><use transform="matrix(0.05,0,0,0.05,30.85,0)" xlink:href="#T"/></g><g id="B"><use transform="matrix(0.05,0,0,0.05,0,0)" xlink:href="#X"/><use transform="matrix(0.05,0,0,0.05,12,0)" xlink:href="#S"/><use transform="matrix(0.05,0,0,0.05,22,0)" xlink:href="#K"/><use transform="matrix(0.05,0,0,0.05,27.950000000000003,0)" xlink:href="#I"/><use transform="matrix(0.05,0,0,0.05,32.95,0)" xlink:href="#ad"/></g><g id="C"><use transform="matrix(0.05,0,0,0.05,0,0)" xlink:href="#aa"/><use transform="matrix(0.05,0,0,0.05,12.950000000000001,0)" xlink:href="#S"/><use transform="matrix(0.05,0,0,0.05,22.950000000000003,0)" xlink:href="#I"/><use transform="matrix(0.05,0,0,0.05,27.950000000000003,0)" xlink:href="#S"/></g></defs></g></svg>